<svg width="196" height="74" viewBox="0 0 196 74" fill="none" xmlns="http://www.w3.org/2000/svg">
<path d="M8.71023 11.4091V14.4773H0.451705V11.4091H8.71023ZM2.18182 8.27273H6.34943V20.3835C6.34943 20.6392 6.3892 20.8466 6.46875 21.0057C6.55398 21.1591 6.67614 21.2699 6.83523 21.3381C6.99432 21.4006 7.18466 21.4318 7.40625 21.4318C7.56534 21.4318 7.73295 21.4176 7.90909 21.3892C8.09091 21.3551 8.22727 21.3267 8.31818 21.304L8.94886 24.3125C8.75 24.3693 8.46875 24.4403 8.10511 24.5256C7.74716 24.6108 7.31818 24.6648 6.81818 24.6875C5.84091 24.733 5.00284 24.6193 4.30398 24.3466C3.6108 24.0682 3.07955 23.6364 2.71023 23.0511C2.34659 22.4659 2.17045 21.7301 2.18182 20.8438V8.27273ZM10.8366 24.5V11.4091H14.8849V13.7955H15.0213C15.2599 12.9318 15.6491 12.2898 16.1889 11.8693C16.7287 11.4432 17.3565 11.2301 18.0724 11.2301C18.2656 11.2301 18.4645 11.2443 18.669 11.2727C18.8736 11.2955 19.0639 11.3324 19.2401 11.3835V15.0057C19.0412 14.9375 18.7798 14.8835 18.456 14.8438C18.1378 14.804 17.8537 14.7841 17.6037 14.7841C17.1094 14.7841 16.6634 14.8949 16.2656 15.1165C15.8736 15.3324 15.5639 15.6364 15.3366 16.0284C15.1151 16.4148 15.0043 16.8693 15.0043 17.392V24.5H10.8366ZM24.1364 24.7216C23.3011 24.7216 22.5597 24.5824 21.9119 24.304C21.2699 24.0199 20.7614 23.5937 20.3864 23.0256C20.017 22.4517 19.8324 21.733 19.8324 20.8693C19.8324 20.142 19.9602 19.5284 20.2159 19.0284C20.4716 18.5284 20.8239 18.1222 21.2727 17.8097C21.7216 17.4972 22.2386 17.2614 22.8239 17.1023C23.4091 16.9375 24.0341 16.8267 24.6989 16.7699C25.4432 16.7017 26.0426 16.6307 26.4972 16.5568C26.9517 16.4773 27.2813 16.3665 27.4858 16.2244C27.696 16.0767 27.8011 15.8693 27.8011 15.6023V15.5597C27.8011 15.1222 27.6506 14.7841 27.3494 14.5455C27.0483 14.3068 26.642 14.1875 26.1307 14.1875C25.5795 14.1875 25.1364 14.3068 24.8011 14.5455C24.4659 14.7841 24.2528 15.1136 24.1619 15.5341L20.3182 15.3977C20.4318 14.6023 20.7244 13.892 21.196 13.267C21.6733 12.6364 22.3267 12.142 23.1562 11.7841C23.9915 11.4205 24.9943 11.2386 26.1648 11.2386C27 11.2386 27.7699 11.3381 28.4744 11.5369C29.179 11.7301 29.7926 12.0142 30.3153 12.3892C30.8381 12.7585 31.2415 13.2131 31.5256 13.7528C31.8153 14.2926 31.9602 14.9091 31.9602 15.6023V24.5H28.0398V22.6761H27.9375C27.7045 23.1193 27.4063 23.4943 27.0426 23.8011C26.6847 24.108 26.2614 24.3381 25.7727 24.4915C25.2898 24.6449 24.7443 24.7216 24.1364 24.7216ZM25.4233 21.9943C25.8722 21.9943 26.2756 21.9034 26.6335 21.7216C26.9972 21.5398 27.2869 21.2898 27.5028 20.9716C27.7188 20.6477 27.8267 20.2727 27.8267 19.8466V18.6023C27.7074 18.6648 27.5625 18.7216 27.392 18.7727C27.2273 18.8239 27.0455 18.8722 26.8466 18.9176C26.6477 18.9631 26.4432 19.0028 26.233 19.0369C26.0227 19.071 25.821 19.1023 25.6278 19.1307C25.2358 19.1932 24.9006 19.2898 24.6222 19.4205C24.3494 19.5511 24.1392 19.7216 23.9915 19.9318C23.8494 20.1364 23.7784 20.3807 23.7784 20.6648C23.7784 21.0966 23.9318 21.4261 24.2386 21.6534C24.5511 21.8807 24.946 21.9943 25.4233 21.9943ZM40.6193 24.7472C39.2386 24.7472 38.054 24.4631 37.0653 23.8949C36.0824 23.3267 35.3267 22.5369 34.7983 21.5256C34.2699 20.5085 34.0057 19.3324 34.0057 17.9972C34.0057 16.6562 34.2699 15.4801 34.7983 14.4688C35.3324 13.4517 36.0909 12.6591 37.0739 12.0909C38.0625 11.5227 39.2415 11.2386 40.6108 11.2386C41.821 11.2386 42.875 11.4574 43.7727 11.8949C44.6761 12.3324 45.3807 12.9517 45.8864 13.7528C46.3977 14.5483 46.6676 15.483 46.696 16.5568H42.8011C42.7216 15.8864 42.4943 15.3608 42.1193 14.9801C41.75 14.5994 41.267 14.4091 40.6705 14.4091C40.1875 14.4091 39.7642 14.5455 39.4006 14.8182C39.0369 15.0852 38.7528 15.483 38.5483 16.0114C38.3494 16.5341 38.25 17.1818 38.25 17.9545C38.25 18.7273 38.3494 19.3807 38.5483 19.9148C38.7528 20.4432 39.0369 20.8437 39.4006 21.1165C39.7642 21.3835 40.1875 21.517 40.6705 21.517C41.0568 21.517 41.3977 21.4347 41.6932 21.2699C41.9943 21.1051 42.2415 20.8636 42.4347 20.5455C42.6278 20.2216 42.75 19.8295 42.8011 19.3693H46.696C46.6562 20.4489 46.3864 21.392 45.8864 22.1989C45.392 23.0057 44.696 23.6335 43.7983 24.0824C42.9063 24.5256 41.8466 24.7472 40.6193 24.7472ZM52.5874 21.0653L52.6044 16.0966H53.1839L56.8658 11.4091H61.5874L56.1158 18.125H55.0163L52.5874 21.0653ZM48.8288 24.5V7.04545H52.9964V24.5H48.8288ZM56.9595 24.5L53.5334 19.0625L56.2777 16.1051L61.7749 24.5H56.9595Z" fill="#818287"/>
<path d="M5.80398 71.8636C5.05398 71.8636 4.34659 71.804 3.68182 71.6847C3.01705 71.5739 2.44602 71.4247 1.96875 71.2372L3.34943 66.6989C3.96307 66.9034 4.51705 67.0227 5.01136 67.0568C5.5142 67.0909 5.9446 67.0099 6.30256 66.8139C6.66903 66.6264 6.95028 66.2898 7.14631 65.804L7.3892 65.2159L0.409091 44.8636H6.95455L10.5724 58.875H10.777L14.446 44.8636H21.0298L13.6278 66.3793C13.2699 67.4531 12.7628 68.3991 12.1065 69.2173C11.4588 70.044 10.6193 70.6918 9.58807 71.1605C8.56534 71.6293 7.30398 71.8636 5.80398 71.8636ZM31.9602 64.8707C29.8977 64.8707 28.125 64.4489 26.642 63.6051C25.1676 62.7528 24.0298 61.5682 23.2287 60.0511C22.4361 58.5256 22.0398 56.7571 22.0398 54.7457C22.0398 52.7259 22.4361 50.9574 23.2287 49.4403C24.0298 47.9148 25.1676 46.7301 26.642 45.8864C28.125 45.0341 29.8977 44.608 31.9602 44.608C34.0227 44.608 35.7912 45.0341 37.2656 45.8864C38.7486 46.7301 39.8864 47.9148 40.679 49.4403C41.4801 50.9574 41.8807 52.7259 41.8807 54.7457C41.8807 56.7571 41.4801 58.5256 40.679 60.0511C39.8864 61.5682 38.7486 62.7528 37.2656 63.6051C35.7912 64.4489 34.0227 64.8707 31.9602 64.8707ZM31.9986 60.1534C32.7486 60.1534 33.3835 59.9233 33.9034 59.4631C34.4233 59.0028 34.8196 58.3636 35.0923 57.5455C35.3736 56.7273 35.5142 55.7812 35.5142 54.7074C35.5142 53.6165 35.3736 52.6619 35.0923 51.8438C34.8196 51.0256 34.4233 50.3864 33.9034 49.9261C33.3835 49.4659 32.7486 49.2358 31.9986 49.2358C31.223 49.2358 30.5668 49.4659 30.0298 49.9261C29.5014 50.3864 29.0966 51.0256 28.8153 51.8438C28.5426 52.6619 28.4062 53.6165 28.4062 54.7074C28.4062 55.7812 28.5426 56.7273 28.8153 57.5455C29.0966 58.3636 29.5014 59.0028 30.0298 59.4631C30.5668 59.9233 31.223 60.1534 31.9986 60.1534ZM57.7521 56.0241V44.8636H63.9908V64.5H58.0334V60.8438H57.8288C57.3942 62.0455 56.6527 63 55.6044 63.7074C54.5646 64.4062 53.3075 64.7557 51.8331 64.7557C50.495 64.7557 49.3189 64.4489 48.3047 63.8352C47.2905 63.2216 46.5021 62.3651 45.9396 61.2656C45.3771 60.1577 45.0916 58.8622 45.0831 57.3793V44.8636H51.3345V56.152C51.343 57.2173 51.6243 58.0568 52.1783 58.6705C52.7322 59.2841 53.4865 59.5909 54.4411 59.5909C55.0632 59.5909 55.6214 59.4545 56.1158 59.1818C56.6186 58.9006 57.0149 58.4957 57.3047 57.9673C57.603 57.4304 57.7521 56.7827 57.7521 56.0241ZM67.9698 64.5V44.8636H74.0423V48.4432H74.2468C74.6048 47.1477 75.1886 46.1847 75.9982 45.554C76.8079 44.9148 77.7496 44.5952 78.8235 44.5952C79.1133 44.5952 79.4116 44.6165 79.7184 44.6591C80.0252 44.6932 80.3107 44.7486 80.5749 44.8253V50.2585C80.2766 50.1562 79.8846 50.0753 79.3988 50.0156C78.9215 49.956 78.4954 49.9261 78.1204 49.9261C77.3789 49.9261 76.7099 50.0923 76.1133 50.4247C75.5252 50.7486 75.0607 51.2045 74.7198 51.7926C74.3874 52.3722 74.2212 53.054 74.2212 53.8381V64.5H67.9698ZM97.108 53.3011V64.5H90.8565V38.3182H96.9034V48.4688H97.1207C97.5639 47.2585 98.2884 46.3125 99.294 45.6307C100.308 44.9489 101.548 44.608 103.014 44.608C104.395 44.608 105.597 44.9148 106.619 45.5284C107.642 46.1335 108.435 46.9901 108.997 48.098C109.568 49.206 109.849 50.5014 109.841 51.9844V64.5H103.589V53.2116C103.598 52.1207 103.325 51.2685 102.771 50.6548C102.217 50.0412 101.438 49.7344 100.432 49.7344C99.7756 49.7344 99.196 49.8793 98.6932 50.169C98.1989 50.4503 97.8111 50.8551 97.5298 51.3835C97.2571 51.9119 97.1165 52.5511 97.108 53.3011ZM119.279 64.8324C118.026 64.8324 116.914 64.6236 115.942 64.206C114.979 63.7798 114.216 63.1406 113.654 62.2884C113.1 61.4276 112.823 60.3494 112.823 59.054C112.823 57.9631 113.015 57.0426 113.398 56.2926C113.782 55.5426 114.31 54.9332 114.983 54.4645C115.657 53.9957 116.432 53.642 117.31 53.4034C118.188 53.1562 119.125 52.9901 120.123 52.9048C121.239 52.8026 122.138 52.696 122.82 52.5852C123.502 52.4659 123.996 52.2997 124.303 52.0866C124.618 51.8651 124.776 51.554 124.776 51.1534V51.0895C124.776 50.4332 124.55 49.9261 124.098 49.5682C123.647 49.2102 123.037 49.0312 122.27 49.0312C121.444 49.0312 120.779 49.2102 120.276 49.5682C119.773 49.9261 119.453 50.4205 119.317 51.0511L113.551 50.8466C113.722 49.6534 114.161 48.5881 114.868 47.6506C115.584 46.7045 116.564 45.9631 117.809 45.4261C119.061 44.8807 120.566 44.608 122.321 44.608C123.574 44.608 124.729 44.7571 125.786 45.0554C126.843 45.3452 127.763 45.7713 128.547 46.3338C129.331 46.8878 129.936 47.5696 130.363 48.3793C130.797 49.1889 131.015 50.1136 131.015 51.1534V64.5H125.134V61.7642H124.98C124.631 62.429 124.184 62.9915 123.638 63.4517C123.101 63.9119 122.466 64.2571 121.733 64.4872C121.009 64.7173 120.191 64.8324 119.279 64.8324ZM121.209 60.7415C121.882 60.7415 122.488 60.6051 123.025 60.3324C123.57 60.0597 124.005 59.6847 124.328 59.2074C124.652 58.7216 124.814 58.1591 124.814 57.5199V55.6534C124.635 55.7472 124.418 55.8324 124.162 55.9091C123.915 55.9858 123.642 56.0582 123.344 56.1264C123.046 56.1946 122.739 56.2543 122.424 56.3054C122.108 56.3565 121.806 56.4034 121.516 56.446C120.928 56.5398 120.425 56.6847 120.007 56.8807C119.598 57.0767 119.283 57.3324 119.061 57.6477C118.848 57.9545 118.742 58.321 118.742 58.7472C118.742 59.3949 118.972 59.8892 119.432 60.2301C119.901 60.571 120.493 60.7415 121.209 60.7415ZM134.837 64.5V38.3182H141.088V48.2259H141.216C141.472 47.6293 141.834 47.054 142.303 46.5C142.78 45.946 143.385 45.4943 144.118 45.1449C144.86 44.7869 145.746 44.608 146.777 44.608C148.141 44.608 149.415 44.9659 150.6 45.6818C151.793 46.3977 152.756 47.5014 153.489 48.9929C154.222 50.4844 154.588 52.3849 154.588 54.6946C154.588 56.919 154.235 58.7812 153.527 60.2812C152.828 61.7812 151.882 62.9062 150.689 63.6562C149.505 64.4062 148.188 64.7812 146.739 64.7812C145.75 64.7812 144.894 64.6193 144.169 64.2955C143.445 63.9716 142.836 63.5455 142.341 63.017C141.855 62.4886 141.48 61.9219 141.216 61.3168H141.025V64.5H134.837ZM140.961 54.6818C140.961 55.7386 141.101 56.6591 141.382 57.4432C141.672 58.2273 142.086 58.8366 142.623 59.2713C143.168 59.6974 143.82 59.9105 144.578 59.9105C145.346 59.9105 145.998 59.6974 146.534 59.2713C147.071 58.8366 147.476 58.2273 147.749 57.4432C148.03 56.6591 148.171 55.7386 148.171 54.6818C148.171 53.625 148.03 52.7088 147.749 51.9332C147.476 51.1577 147.071 50.5568 146.534 50.1307C146.006 49.7045 145.354 49.4915 144.578 49.4915C143.811 49.4915 143.159 49.7003 142.623 50.1179C142.086 50.5355 141.672 51.1321 141.382 51.9077C141.101 52.6832 140.961 53.608 140.961 54.6818ZM157.864 64.5V44.8636H164.116V64.5H157.864ZM160.996 42.5753C160.119 42.5753 159.364 42.2855 158.734 41.706C158.103 41.1179 157.788 40.4105 157.788 39.5838C157.788 38.7656 158.103 38.0668 158.734 37.4872C159.364 36.8991 160.119 36.6051 160.996 36.6051C161.883 36.6051 162.637 36.8991 163.259 37.4872C163.89 38.0668 164.205 38.7656 164.205 39.5838C164.205 40.4105 163.89 41.1179 163.259 41.706C162.637 42.2855 161.883 42.5753 160.996 42.5753ZM179.179 44.8636V49.4659H166.791V44.8636H179.179ZM169.386 40.1591H175.637V58.3253C175.637 58.7088 175.697 59.0199 175.816 59.2585C175.944 59.4886 176.127 59.6548 176.366 59.7571C176.605 59.8509 176.89 59.8977 177.223 59.8977C177.461 59.8977 177.713 59.8764 177.977 59.8338C178.25 59.7827 178.454 59.7401 178.591 59.706L179.537 64.2188C179.238 64.304 178.816 64.4105 178.271 64.5384C177.734 64.6662 177.091 64.7472 176.341 64.7812C174.875 64.8494 173.618 64.679 172.569 64.2699C171.529 63.8523 170.733 63.2045 170.179 62.3267C169.633 61.4489 169.369 60.3452 169.386 59.0156V40.1591ZM185.884 64.8707C184.963 64.8707 184.175 64.5469 183.519 63.8991C182.871 63.2514 182.551 62.4673 182.56 61.5469C182.551 60.6435 182.871 59.8722 183.519 59.233C184.175 58.5852 184.963 58.2614 185.884 58.2614C186.753 58.2614 187.52 58.5852 188.185 59.233C188.858 59.8722 189.199 60.6435 189.208 61.5469C189.199 62.1605 189.037 62.7187 188.722 63.2216C188.415 63.7244 188.01 64.125 187.507 64.4233C187.013 64.7216 186.472 64.8707 185.884 64.8707Z" fill="white"/>
</svg>
